{
  "accessors": [
    {
      "bufferView": 2,
      "componentType": 5126,
      "count": 10475,
      "max": [
        25.557720184326172,
        78.674934387207031,
        21.55242919921875
      ],
      "min": [
        -23.053356170654297,
        -10.190879821777344,
        -17.464096069335938
      ],
      "type": "VEC3"
    },
    {
      "bufferView": 2,
      "byteOffset": 125700,
      "componentType": 5126,
      "count": 10475,
      "max": [
        0.99999862909317017,
        0.99997687339782715,
        0.99969750642776489
      ],
      "min": [
        -0.99999868869781494,
        -0.99997687339782715,
        -0.99969750642776489
      ],
      "type": "VEC3"
    },
    {
      "bufferView": 1,
      "componentType": 5126,
      "count": 10475,
      "max": [
        0.99950003623962402,
        0.99927544593811035
      ],
      "min": [
        0.00050000002374872565,
        0.00050000002374872565
      ],
      "type": "VEC2"
    },
    {
      "bufferView": 0,
      "componentType": 5125,
      "count": 26382,
      "max": [
        10474
      ],
      "min": [
        0
      ],
      "type": "SCALAR"
    },
    {
      "bufferView": 2,
      "byteOffset": 251400,
      "componentType": 5126,
      "count": 2880,
      "max": [
        26.104465484619141,
        85.106002807617188,
        23.79517936706543
      ],
      "min": [
        -47.793624877929688,
        10.02326488494873,
        -17.019851684570312
      ],
      "type": "VEC3"
    },
    {
      "bufferView": 2,
      "byteOffset": 285960,
      "componentType": 5126,
      "count": 2880,
      "max": [
        1,
        1,
        1
      ],
      "min": [
        -1,
        -1,
        -1
      ],
      "type": "VEC3"
    },
    {
      "bufferView": 1,
      "byteOffset": 83800,
      "componentType": 5126,
      "count": 2880,
      "max": [
        0.99950003623962402,
        0.99269998073577881
      ],
      "min": [
        0.00050000002374872565,
        0.00050000002374872565
      ],
      "type": "VEC2"
    },
    {
      "bufferView": 0,
      "byteOffset": 105528,
      "componentType": 5125,
      "count": 8088,
      "max": [
        2879
      ],
      "min": [
        0
      ],
      "type": "SCALAR"
    },
    {
      "bufferView": 2,
      "byteOffset": 320520,
      "componentType": 5126,
      "count": 1535,
      "max": [
        31.64216423034668,
        90.234817504882812,
        23.14422607421875
      ],
      "min": [
        -48.263343811035156,
        10.512264251708984,
        -22.306684494018555
      ],
      "type": "VEC3"
    },
    {
      "bufferView": 2,
      "byteOffset": 338940,
      "componentType": 5126,
      "count": 1535,
      "max": [
        1,
        1,
        1
      ],
      "min": [
        -1,
        -1,
        -1
      ],
      "type": "VEC3"
    },
    {
      "bufferView": 1,
      "byteOffset": 106840,
      "componentType": 5126,
      "count": 1535,
      "max": [
        0.99950003623962402,
        0.99571311473846436
      ],
      "min": [
        0.00050000002374872565,
        0.00050000002374872565
      ],
      "type": "VEC2"
    },
    {
      "bufferView": 0,
      "byteOffset": 137880,
      "componentType": 5125,
      "count": 5028,
      "max": [
        1534
      ],
      "min": [
        0
      ],
      "type": "SCALAR"
    },
    {
      "bufferView": 2,
      "byteOffset": 357360,
      "componentType": 5126,
      "count": 10049,
      "max": [
        24.360034942626953,
        29.468654632568359,
        7.5578384399414062
      ],
      "min": [
        12.750086784362793,
        5.6578788757324219,
        -16.4595947265625
      ],
      "type": "VEC3"
    },
    {
      "bufferView": 2,
      "byteOffset": 477948,
      "componentType": 5126,
      "count": 10049,
      "max": [
        1,
        0.99973034858703613,
        1
      ],
      "min": [
        -1,
        -0.99942773580551147,
        -1
      ],
      "type": "VEC3"
    },
    {
      "bufferView": 1,
      "byteOffset": 119120,
      "componentType": 5126,
      "count": 10049,
      "max": [
        0.98281925916671753,
        0.99950003623962402
      ],
      "min": [
        0.00050000002374872565,
        0.00050000002374872565
      ],
      "type": "VEC2"
    },
    {
      "bufferView": 0,
      "byteOffset": 157992,
      "componentType": 5125,
      "count": 23676,
      "max": [
        10048
      ],
      "min": [
        0
      ],
      "type": "SCALAR"
    },
    {
      "bufferView": 2,
      "byteOffset": 598536,
      "componentType": 5126,
      "count": 22290,
      "max": [
        26.170782089233398,
        89.2103271484375,
        23.302932739257812
      ],
      "min": [
        -48.419746398925781,
        12.004436492919922,
        -18.045873641967773
      ],
      "type": "VEC3"
    },
    {
      "bufferView": 2,
      "byteOffset": 866016,
      "componentType": 5126,
      "count": 22290,
      "max": [
        0.99988430738449097,
        0.99998992681503296,
        1
      ],
      "min": [
        -0.99988430738449097,
        -0.99998265504837036,
        -1
      ],
      "type": "VEC3"
    },
    {
      "bufferView": 1,
      "byteOffset": 199512,
      "componentType": 5126,
      "count": 22290,
      "max": [
        0.99950003623962402,
        0.99947565793991089
      ],
      "min": [
        0.00050000002374872565,
        0.00050000002374872565
      ],
      "type": "VEC2"
    },
    {
      "bufferView": 0,
      "byteOffset": 252696,
      "componentType": 5125,
      "count": 78150,
      "max": [
        22289
      ],
      "min": [
        0
      ],
      "type": "SCALAR"
    },
    {
      "bufferView": 2,
      "byteOffset": 1133496,
      "componentType": 5126,
      "count": 29779,
      "max": [
        26.317653656005859,
        54.320121765136719,
        16.363910675048828
      ],
      "min": [
        14.401823997497559,
        18.72651481628418,
        -16.887092590332031
      ],
      "type": "VEC3"
    },
    {
      "bufferView": 2,
      "byteOffset": 1490844,
      "componentType": 5126,
      "count": 29779,
      "max": [
        0.99998033046722412,
        0.99988633394241333,
        0.99993222951889038
      ],
      "min": [
        -0.99999624490737915,
        -0.99995356798171997,
        -0.99996596574783325
      ],
      "type": "VEC3"
    },
    {
      "bufferView": 1,
      "byteOffset": 377832,
      "componentType": 5126,
      "count": 29779,
      "max": [
        0.99529123306274414,
        0.99950003623962402
      ],
      "min": [
        0.00050000002374872565,
        0.00050000002374872565
      ],
      "type": "VEC2"
    },
    {
      "bufferView": 0,
      "byteOffset": 565296,
      "componentType": 5125,
      "count": 29907,
      "max": [
        29778
      ],
      "min": [
        0
      ],
      "type": "SCALAR"
    },
    {
      "bufferView": 2,
      "byteOffset": 1848192,
      "componentType": 5126,
      "count": 32434,
      "max": [
        -23.44489860534668,
        51.873199462890625,
        -6.779843807220459
      ],
      "min": [
        -31.223367691040039,
        34.986347198486328,
        -16.661348342895508
      ],
      "type": "VEC3"
    },
    {
      "bufferView": 2,
      "byteOffset": 2237400,
      "componentType": 5126,
      "count": 32434,
      "max": [
        0.99998605251312256,
        0.99998390674591064,
        0.99994176626205444
      ],
      "min": [
        -0.99995589256286621,
        -0.99998414516448975,
        -0.99994677305221558
      ],
      "type": "VEC3"
    },
    {
      "bufferView": 1,
      "byteOffset": 616064,
      "componentType": 5126,
      "count": 32434,
      "max": [
        0.99950003623962402,
        0.99493139982223511
      ],
      "min": [
        0.00050000002374872565,
        0.00050000002374872565
      ],
      "type": "VEC2"
    },
    {
      "bufferView": 0,
      "byteOffset": 684924,
      "componentType": 5125,
      "count": 110796,
      "max": [
        32433
      ],
      "min": [
        0
      ],
      "type": "SCALAR"
    }
  ],
  "asset": {
    "extras": {
      "author": "Marcin Lubecki (https://sketchfab.com/Lubus)",
      "license": "CC-BY-4.0 (http://creativecommons.org/licenses/by/4.0/)",
      "source": "https://sketchfab.com/3d-models/endless-faith-f770bb6cf5b145f297a7a0c76a869138",
      "title": "Endless Faith"
    },
    "generator": "Sketchfab-7.50.0",
    "version": "2.0"
  },
  "bufferViews": [
    {
      "buffer": 0,
      "byteLength": 1128108,
      "byteOffset": 0,
      "name": "floatBufferViews",
      "target": 34963
    },
    {
      "buffer": 0,
      "byteLength": 875536,
      "byteOffset": 1128108,
      "byteStride": 8,
      "name": "floatBufferViews",
      "target": 34962
    },
    {
      "buffer": 0,
      "byteLength": 2626608,
      "byteOffset": 2003644,
      "byteStride": 12,
      "name": "floatBufferViews",
      "target": 34962
    }
  ],
  "buffers": [
    {
      "byteLength": 4630252,
      "uri": "scene.bin"
    }
  ],
  "extensionsUsed": [
    "KHR_materials_unlit"
  ],
  "images": [
    {
      "uri": "textures/Material_156_baseColor.jpeg"
    },
    {
      "uri": "textures/Material_157_baseColor.jpeg"
    },
    {
      "uri": "textures/Material_158_baseColor.jpeg"
    },
    {
      "uri": "textures/Material_159_baseColor.jpeg"
    },
    {
      "uri": "textures/Material_161_baseColor.jpeg"
    },
    {
      "uri": "textures/Material_160_baseColor.jpeg"
    },
    {
      "uri": "textures/Material_162_baseColor.jpeg"
    }
  ],
  "materials": [
    {
      "doubleSided": true,
      "emissiveFactor": [
        0,
        0,
        0
      ],
      "extensions": {
        "KHR_materials_unlit": {}
      },
      "name": "Material_156",
      "pbrMetallicRoughness": {
        "baseColorFactor": [
          1,
          1,
          1,
          1
        ],
        "baseColorTexture": {
          "index": 0,
          "texCoord": 0
        },
        "metallicFactor": 0,
        "roughnessFactor": 1
      }
    },
    {
      "doubleSided": true,
      "emissiveFactor": [
        0,
        0,
        0
      ],
      "extensions": {
        "KHR_materials_unlit": {}
      },
      "name": "Material_157",
      "pbrMetallicRoughness": {
        "baseColorFactor": [
          1,
          1,
          1,
          1
        ],
        "baseColorTexture": {
          "index": 1,
          "texCoord": 0
        },
        "metallicFactor": 0,
        "roughnessFactor": 1
      }
    },
    {
      "doubleSided": true,
      "extensions": {
        "KHR_materials_unlit": {}
      },
      "name": "Material_158",
      "pbrMetallicRoughness": {
        "baseColorFactor": [
          1,
          1,
          1,
          1
        ],
        "baseColorTexture": {
          "index": 2,
          "texCoord": 0
        },
        "metallicFactor": 0,
        "roughnessFactor": 1
      }
    },
    {
      "doubleSided": true,
      "emissiveFactor": [
        0,
        0,
        0
      ],
      "extensions": {
        "KHR_materials_unlit": {}
      },
      "name": "Material_159",
      "pbrMetallicRoughness": {
        "baseColorFactor": [
          1,
          1,
          1,
          1
        ],
        "baseColorTexture": {
          "index": 3,
          "texCoord": 0
        },
        "metallicFactor": 0,
        "roughnessFactor": 1
      }
    },
    {
      "doubleSided": true,
      "emissiveFactor": [
        0,
        0,
        0
      ],
      "extensions": {
        "KHR_materials_unlit": {}
      },
      "name": "Material_161",
      "pbrMetallicRoughness": {
        "baseColorFactor": [
          1,
          1,
          1,
          1
        ],
        "baseColorTexture": {
          "index": 4,
          "texCoord": 0
        },
        "metallicFactor": 0,
        "roughnessFactor": 1
      }
    },
    {
      "doubleSided": true,
      "emissiveFactor": [
        0,
        0,
        0
      ],
      "extensions": {
        "KHR_materials_unlit": {}
      },
      "name": "Material_160",
      "pbrMetallicRoughness": {
        "baseColorFactor": [
          1,
          1,
          1,
          1
        ],
        "baseColorTexture": {
          "index": 5,
          "texCoord": 0
        },
        "metallicFactor": 0,
        "roughnessFactor": 1
      }
    },
    {
      "doubleSided": true,
      "emissiveFactor": [
        1,
        1,
        1
      ],
      "emissiveTexture": {
        "index": 6,
        "texCoord": 0
      },
      "extensions": {
        "KHR_materials_unlit": {}
      },
      "name": "Material_162",
      "pbrMetallicRoughness": {
        "baseColorFactor": [
          1,
          1,
          1,
          1
        ],
        "baseColorTexture": {
          "index": 6,
          "texCoord": 0
        },
        "metallicFactor": 0,
        "roughnessFactor": 1
      }
    }
  ],
  "meshes": [
    {
      "name": "C_Material #156_0",
      "primitives": [
        {
          "attributes": {
            "NORMAL": 1,
            "POSITION": 0,
            "TEXCOORD_0": 2
          },
          "indices": 3,
          "material": 0,
          "mode": 4
        }
      ]
    },
    {
      "name": "E_Material #157_0",
      "primitives": [
        {
          "attributes": {
            "NORMAL": 5,
            "POSITION": 4,
            "TEXCOORD_0": 6
          },
          "indices": 7,
          "material": 1,
          "mode": 4
        }
      ]
    },
    {
      "name": "D_Material #158_0",
      "primitives": [
        {
          "attributes": {
            "NORMAL": 9,
            "POSITION": 8,
            "TEXCOORD_0": 10
          },
          "indices": 11,
          "material": 2,
          "mode": 4
        }
      ]
    },
    {
      "name": "F_Material #159_0",
      "primitives": [
        {
          "attributes": {
            "NORMAL": 13,
            "POSITION": 12,
            "TEXCOORD_0": 14
          },
          "indices": 15,
          "material": 3,
          "mode": 4
        }
      ]
    },
    {
      "name": "G_Material #161_0",
      "primitives": [
        {
          "attributes": {
            "NORMAL": 17,
            "POSITION": 16,
            "TEXCOORD_0": 18
          },
          "indices": 19,
          "material": 4,
          "mode": 4
        }
      ]
    },
    {
      "name": "H_Material #160_0",
      "primitives": [
        {
          "attributes": {
            "NORMAL": 21,
            "POSITION": 20,
            "TEXCOORD_0": 22
          },
          "indices": 23,
          "material": 5,
          "mode": 4
        }
      ]
    },
    {
      "name": "I_Material #162_0",
      "primitives": [
        {
          "attributes": {
            "NORMAL": 25,
            "POSITION": 24,
            "TEXCOORD_0": 26
          },
          "indices": 27,
          "material": 6,
          "mode": 4
        }
      ]
    }
  ],
  "nodes": [
    {
      "children": [
        1
      ],
      "name": "RootNode (gltf orientation matrix)",
      "rotation": [
        -0.70710678118654746,
        -0,
        -0,
        0.70710678118654757
      ]
    },
    {
      "children": [
        2
      ],
      "name": "RootNode (model correction matrix)"
    },
    {
      "children": [
        3
      ],
      "matrix": [
        1,
        0,
        0,
        0,
        0,
        0,
        1,
        0,
        0,
        -1,
        0,
        0,
        0,
        0,
        0,
        1
      ],
      "name": "Endless Faith.fbx"
    },
    {
      "children": [
        4,
        6,
        8,
        10,
        12,
        14,
        16
      ],
      "name": "RootNode"
    },
    {
      "children": [
        5
      ],
      "matrix": [
        1,
        0,
        0,
        0,
        0,
        2.2204460492503131e-16,
        -1,
        0,
        0,
        1,
        2.2204460492503131e-16,
        0,
        -7.0279736518859863,
        22.452581405639648,
        54.003711700439453,
        1
      ],
      "name": "C"
    },
    {
      "mesh": 0,
      "name": "C_Material #156_0"
    },
    {
      "children": [
        7
      ],
      "matrix": [
        1,
        0,
        0,
        0,
        0,
        2.2204460492503131e-16,
        -1,
        0,
        0,
        1,
        2.2204460492503131e-16,
        0,
        -7.0279736518859863,
        22.452581405639648,
        54.003711700439453,
        1
      ],
      "name": "E"
    },
    {
      "mesh": 1,
      "name": "E_Material #157_0"
    },
    {
      "children": [
        9
      ],
      "matrix": [
        1,
        0,
        0,
        0,
        0,
        2.2204460492503131e-16,
        -1,
        0,
        0,
        1,
        2.2204460492503131e-16,
        0,
        -7.0279736518859863,
        22.452581405639648,
        54.003711700439453,
        1
      ],
      "name": "D"
    },
    {
      "mesh": 2,
      "name": "D_Material #158_0"
    },
    {
      "children": [
        11
      ],
      "matrix": [
        1,
        0,
        0,
        0,
        0,
        2.2204460492503131e-16,
        -1,
        0,
        0,
        1,
        2.2204460492503131e-16,
        0,
        -7.0279736518859863,
        22.452581405639648,
        54.003711700439453,
        1
      ],
      "name": "F"
    },
    {
      "mesh": 3,
      "name": "F_Material #159_0"
    },
    {
      "children": [
        13
      ],
      "matrix": [
        1,
        0,
        0,
        0,
        0,
        2.2204460492503131e-16,
        -1,
        0,
        0,
        1,
        2.2204460492503131e-16,
        0,
        -7.0279736518859863,
        22.452581405639648,
        54.003711700439453,
        1
      ],
      "name": "G"
    },
    {
      "mesh": 4,
      "name": "G_Material #161_0"
    },
    {
      "children": [
        15
      ],
      "matrix": [
        1,
        0,
        0,
        0,
        0,
        2.2204460492503131e-16,
        -1,
        0,
        0,
        1,
        2.2204460492503131e-16,
        0,
        -7.0279736518859863,
        22.452581405639648,
        54.003711700439453,
        1
      ],
      "name": "H"
    },
    {
      "mesh": 5,
      "name": "H_Material #160_0"
    },
    {
      "children": [
        17
      ],
      "matrix": [
        1,
        0,
        0,
        0,
        0,
        2.2204460492503131e-16,
        -1,
        0,
        0,
        1,
        2.2204460492503131e-16,
        0,
        -7.0279736518859863,
        22.452581405639648,
        54.003711700439453,
        1
      ],
      "name": "I"
    },
    {
      "mesh": 6,
      "name": "I_Material #162_0"
    }
  ],
  "samplers": [
    {
      "magFilter": 9729,
      "minFilter": 9987,
      "wrapS": 10497,
      "wrapT": 10497
    }
  ],
  "scene": 0,
  "scenes": [
    {
      "name": "OSG_Scene",
      "nodes": [
        0
      ]
    }
  ],
  "textures": [
    {
      "sampler": 0,
      "source": 0
    },
    {
      "sampler": 0,
      "source": 1
    },
    {
      "sampler": 0,
      "source": 2
    },
    {
      "sampler": 0,
      "source": 3
    },
    {
      "sampler": 0,
      "source": 4
    },
    {
      "sampler": 0,
      "source": 5
    },
    {
      "sampler": 0,
      "source": 6
    }
  ]
}

